<svg xmlns="http://www.w3.org/2000/svg" viewBox="0 5 168.0500030517578 39.849998474121094" data-asc="0.881"><g fill="#ffffff"><g fill="#ffffff" transform="translate(0, 0)"><path d="M16.35 44.85Q11.55 44.85 7.85 43.07Q4.15 41.30 2.08 38.15Q0 35 0 30.95L0 7.60Q0 6.45 0.75 5.72Q1.50 5.00 2.60 5.00Q3.75 5.00 4.47 5.72Q5.20 6.45 5.20 7.60L5.20 30.95Q5.20 33.65 6.63 35.72Q8.05 37.80 10.58 38.97Q13.10 40.15 16.35 40.15Q19.50 40.15 21.93 38.97Q24.35 37.80 25.73 35.72Q27.10 33.65 27.10 30.95L27.10 7.60Q27.10 6.45 27.85 5.72Q28.60 5.00 29.70 5.00Q30.85 5.00 31.55 5.72Q32.25 6.45 32.25 7.60L32.25 30.95Q32.25 35 30.23 38.15Q28.20 41.30 24.60 43.07Q21 44.85 16.35 44.85ZM44.85 44.05Q43.75 44.05 43 43.30Q42.25 42.55 42.25 41.45L42.25 7.60Q42.25 6.45 43 5.72Q43.75 5.00 44.85 5.00L54.85 5.00Q58.60 5.00 61.50 6.65Q64.40 8.30 66.03 11.22Q67.65 14.15 67.65 17.95Q67.65 21.60 66.03 24.45Q64.40 27.30 61.50 28.90Q58.60 30.50 54.85 30.50L47.45 30.50L47.45 41.45Q47.45 42.55 46.73 43.30Q46 44.05 44.85 44.05M47.45 25.70L54.85 25.70Q57.15 25.70 58.90 24.70Q60.65 23.70 61.65 21.95Q62.65 20.20 62.65 17.95Q62.65 15.55 61.65 13.72Q60.65 11.90 58.90 10.85Q57.15 9.80 54.85 9.80L47.45 9.80L47.45 25.70ZM79.40 44.05Q77.20 44.05 75.50 42.85Q73.80 41.65 72.85 39.57Q71.90 37.50 71.90 34.80L71.90 7.50Q71.90 6.40 72.60 5.70Q73.30 5.00 74.40 5.00Q75.50 5.00 76.20 5.70Q76.90 6.40 76.90 7.50L76.90 34.80Q76.90 36.65 77.60 37.85Q78.30 39.05 79.40 39.05L80.65 39.05Q81.65 39.05 82.28 39.75Q82.90 40.45 82.90 41.55Q82.90 42.65 81.95 43.35Q81 44.05 79.50 44.05L79.40 44.05ZM97.80 44.25Q94.15 44.25 91.25 42.42Q88.35 40.60 86.68 37.47Q85 34.35 85 30.40Q85 26.45 86.83 23.30Q88.65 20.15 91.78 18.32Q94.90 16.50 98.80 16.50Q102.70 16.50 105.80 18.32Q108.90 20.15 110.73 23.30Q112.55 26.45 112.55 30.40L110.60 30.40Q110.60 34.35 108.93 37.47Q107.25 40.60 104.35 42.42Q101.45 44.25 97.80 44.25M98.80 39.75Q101.35 39.75 103.35 38.52Q105.35 37.30 106.50 35.17Q107.65 33.05 107.65 30.40Q107.65 27.70 106.50 25.57Q105.35 23.45 103.35 22.22Q101.35 21.00 98.80 21.00Q96.30 21.00 94.28 22.22Q92.25 23.45 91.08 25.57Q89.90 27.70 89.90 30.40Q89.90 33.05 91.08 35.17Q92.25 37.30 94.28 38.52Q96.30 39.75 98.80 39.75M110 44.10Q108.90 44.10 108.18 43.38Q107.45 42.65 107.45 41.55L107.45 33.90L108.40 28.60L112.55 30.40L112.55 41.55Q112.55 42.65 111.83 43.38Q111.10 44.10 110 44.10ZM143.25 44.10Q142.15 44.10 141.43 43.38Q140.70 42.65 140.70 41.55L140.70 29.25Q140.70 26.40 139.65 24.60Q138.60 22.80 136.83 21.92Q135.05 21.05 132.75 21.05Q130.65 21.05 128.95 21.90Q127.25 22.75 126.25 24.17Q125.25 25.60 125.25 27.45L122.10 27.45Q122.10 24.30 123.63 21.82Q125.15 19.35 127.80 17.90Q130.45 16.45 133.75 16.45Q137.20 16.45 139.93 17.92Q142.65 19.40 144.23 22.25Q145.80 25.10 145.80 29.25L145.80 41.55Q145.80 42.65 145.08 43.38Q144.35 44.10 143.25 44.10M122.70 44.10Q121.60 44.10 120.88 43.38Q120.15 42.65 120.15 41.55L120.15 19.25Q120.15 18.10 120.88 17.40Q121.60 16.70 122.70 16.70Q123.85 16.70 124.55 17.40Q125.25 18.10 125.25 19.25L125.25 41.55Q125.25 42.65 124.55 43.38Q123.85 44.10 122.70 44.10ZM164.20 44.05Q161.70 44.05 159.70 42.77Q157.70 41.50 156.55 39.30Q155.40 37.10 155.40 34.35L155.40 10.50Q155.40 9.40 156.10 8.70Q156.80 8.00 157.90 8.00Q159 8.00 159.70 8.70Q160.40 9.40 160.40 10.50L160.40 34.35Q160.40 36.35 161.50 37.70Q162.60 39.05 164.20 39.05L165.90 39.05Q166.80 39.05 167.43 39.75Q168.05 40.45 168.05 41.55Q168.05 42.65 167.22 43.35Q166.40 44.05 165.10 44.05L164.20 44.05M153.10 22.00Q152.05 22.00 151.40 21.40Q150.75 20.80 150.75 19.90Q150.75 18.90 151.40 18.30Q152.05 17.70 153.10 17.70L164.65 17.70Q165.70 17.70 166.35 18.30Q167 18.90 167 19.90Q167 20.80 166.35 21.40Q165.70 22.00 164.65 22.00L153.10 22.00Z"/></g></g></svg>